<svg xmlns="http://www.w3.org/2000/svg" height="80" width="80" fill="white"  viewBox="0 0 48 60" x="0px" y="0px"><g data-name="Arrow Long Right"><path  data-name="Compound Path" d="M35,32.75a.74.74,0,0,1-.53-.22.75.75,0,0,1,0-1.06l6.72-6.72H5a.75.75,0,0,1,0-1.5H41.19l-6.72-6.72a.75.75,0,1,1,1.06-1.06l8,8a.63.63,0,0,1,.16.24.73.73,0,0,1,0,.58.63.63,0,0,1-.16.24l-8,8A.74.74,0,0,1,35,32.75Z"/></g><text x="0" y="63" fill="#000000" font-size="5px" font-weight="bold" font-family="'Helvetica Neue', Helvetica, Arial-Unicode, Arial, Sans-serif">Created by Rahman Haryanto</text><text x="0" y="68" fill="#000000" font-size="5px" font-weight="bold" font-family="'Helvetica Neue', Helvetica, Arial-Unicode, Arial, Sans-serif">from the Noun Project</text></svg>